<svg xmlns="http://www.w3.org/2000/svg" viewBox="0 0 136.9 58.27"><defs><style>.cls-1{fill:#638c1c}</style></defs><g id="Layer_2" data-name="Layer 2"><g id="info"><path class="cls-1" d="M110.75,5.11a1.38,1.38,0,0,0-1.33,1.33V7c0,.73,1.76,4.36,2.13,5.13.13.29.3.41.45.4h0c.16,0,.32-.11.46-.4.36-.77,2.11-4.4,2.11-5.13V6.44a1.39,1.39,0,0,0-1.32-1.33Z"/><path class="cls-1" d="M38.46,16.58a3.25,3.25,0,0,0-.92,2.08V35.19a5.62,5.62,0,0,1-.24,1.75c-.14.29-.86.54-.86.54H35.5c-.51,0-.92.24-.92.53s.57.54,1.28.54h8c.71,0,1.29-.25,1.29-.54s-.42-.53-.93-.53h-.92l-.56-.25c-.31-.13-.56-1.36-.56-2V14.32c0-.67-.41-.84-.92-.36Z"/><path class="cls-1" d="M38.59,5.11a1.38,1.38,0,0,0-1.33,1.33V7c0,.73,1.76,4.36,2.12,5.13.14.29.31.41.46.4h0c.15,0,.32-.11.46-.4.36-.77,2.11-4.4,2.11-5.13V6.44A1.39,1.39,0,0,0,41.1,5.11Z"/><path class="cls-1" d="M17.25,16.66c6.22-2.19,8.45-5.43,8.18-9.77s-7-7-13.69-4.92S.74,9.12,2,13.39A3.93,3.93,0,0,0,6.52,16a2.77,2.77,0,0,0,2.56-2.61c0-.71-.58-.56-.58-.56a2.42,2.42,0,0,1-.47,0,1.12,1.12,0,0,1-1.13-.8,1.28,1.28,0,0,1,1.73-1.54,1.44,1.44,0,0,1,1,1h0S10.9,16.2,6.35,17A5.2,5.2,0,0,1,.26,13.69l0,0C-1.17,9.11,4.05,3.47,11.88,1.07S28,.43,29.35,5c1.34,4.37-4.18,9.74-11.49,12.29"/><path class="cls-1" d="M20,16.32c2.92,1,5.68,3.74,7.49,7.23C30.3,29,26.33,37.36,22.42,37.36H19a1.16,1.16,0,0,1-1.15-1.15V13.83h0V1c0-.73-.43-.91-.95-.39L14,3.45a3.66,3.66,0,0,0-1,2.28V35.18a6.05,6.05,0,0,1-.23,1.75c-.14.29-.82.53-.82.54h-.89c-.48,0-.87.23-.87.53s.54.53,1.22.53h15c4.51,0,8.89-9.07,5.64-15.34-2.08-4-7-6.52-10.36-7.71"/><path class="cls-1" d="M55.48,13c-5.13.57-9.25,6.51-8.87,13.67s4.86,12.75,10,12.48,8.19-6.28,8.19-13.46c0-8.47-4.37-13.25-9.33-12.69m2.41,24.66c-3.32.18-6.29-5-6.64-11.54s2.08-12,5.4-12.17,6.28,5,6.63,11.54-2.07,12-5.39,12.17"/><path class="cls-1" d="M110.62,16.58a3.29,3.29,0,0,0-.91,2.08V35.19a5.28,5.28,0,0,1-.25,1.75c-.13.29-.87.54-.87.54h-.93c-.5,0-.93.24-.93.53s.59.54,1.29.54h8c.7,0,1.29-.25,1.29-.54s-.42-.53-.94-.53h-.92l-.56-.25c-.3-.13-.56-1.36-.56-2V14.32c0-.67-.41-.84-.9-.36Z"/><path class="cls-1" d="M127.59,12.91c-5.14.57-9.25,6.51-8.89,13.67s4.87,12.75,10,12.49,8.17-6.29,8.17-13.46c0-8.48-4.35-13.25-9.31-12.7M130,37.57c-3.33.18-6.3-5-6.65-11.53s2.07-12,5.4-12.17,6.29,5,6.64,11.54-2.08,12-5.39,12.16"/><path class="cls-1" d="M97.09.33l-10,29.51L77.14.33H69.65c-.75,0-1.33.3-1.33.59s.42.53.93.53h.93s.72.24.86.53a5.33,5.33,0,0,1,.25,1.75h0V32.42c0,1.68,0,4.67-1.89,5.36-.49.2-.67-.08-.71-.3a4.27,4.27,0,0,0-.37-1.82,1.74,1.74,0,0,0-1.91-1.14,2.2,2.2,0,0,0-1.13,3.72c1,1.24,2.8,1.1,3.87.83a6.32,6.32,0,0,0,1.61-.6h0c2-1.36,2.21-4.49,2.21-6V5.28L84,38a1.17,1.17,0,0,0,.14.41l0,.1c.16.24.37.67.64.75.64.2,1.21-.27,1.4-1l.24-.59,1.64-4.84h0L97.07,6.43V35.2a5.54,5.54,0,0,1-.24,1.74c-.14.29-.86.54-.86.54H95c-.5,0-.93.24-.93.54s.59.53,1.29.53h8c.71,0,1.29-.25,1.29-.54s-.42-.53-.93-.53h-.93s-.73-.25-.86-.54a5.26,5.26,0,0,1-.25-1.74h0V3.67h0A5.59,5.59,0,0,1,102,1.94c.14-.29.87-.53.87-.54h.93c.51,0,.93-.24.93-.54s-.58-.53-1.3-.53h-6.3Z"/><path class="cls-1" d="M119.38 53.89H130.69V54.52H119.38z"/><path class="cls-1" d="M11.17 53.53H22.48V54.160000000000004H11.17z"/><path class="cls-1" d="M31.71,50.76a1.56,1.56,0,0,0-1.4.93,5.39,5.39,0,0,0-.52,2.57A6.2,6.2,0,0,0,30,56.13a2.72,2.72,0,0,0,.69,1.21,1.41,1.41,0,0,0,1,.43,2.23,2.23,0,0,0,1-.22V58a2.17,2.17,0,0,1-1.09.24,1.92,1.92,0,0,1-1.3-.48,3.12,3.12,0,0,1-.86-1.39,6.84,6.84,0,0,1-.3-2.15,5.52,5.52,0,0,1,.66-2.92,2,2,0,0,1,1.81-1.07,2.32,2.32,0,0,1,1.24.33l-.24.46a1.86,1.86,0,0,0-1-.29"/><path class="cls-1" d="M34.08 58.17L34.08 50.38 34.6 50.38 34.6 57.66 36.8 57.66 36.8 58.17 34.08 58.17z"/><path class="cls-1" d="M40.69 58.17L37.87 58.17 37.87 50.38 40.69 50.38 40.69 50.88 38.38 50.88 38.38 53.84 40.56 53.84 40.56 54.34 38.38 54.34 38.38 57.66 40.69 57.66 40.69 58.17z"/><path class="cls-1" d="M45,58.17l-.69-2.83H42.42l-.67,2.83H41.2l1.88-7.79h.53l1.93,7.79Zm-.8-3.35-.69-2.9a9.26,9.26,0,0,1-.17-.93,7.5,7.5,0,0,1-.15.93l-.66,2.9Z"/><path class="cls-1" d="M50.48,58.17h-.66l-3-7h0c0,.48.06.94.06,1.39v5.59h-.51V50.38h.68L50,57.28h0c0-.58,0-1.07,0-1.46V50.38h.5Z"/><path class="cls-1" d="M52.18 50.38H52.71V58.17H52.18z"/><path class="cls-1" d="M58.5,58.17h-.66l-2.94-7h0c0,.48.06.94.06,1.39v5.59h-.51V50.38h.68L58,57.28h0c0-.58,0-1.07,0-1.46V50.38h.5Z"/><path class="cls-1" d="M62.76,54.24h1.72v3.68a5.16,5.16,0,0,1-1.86.35,2.22,2.22,0,0,1-2-1.07,5.36,5.36,0,0,1-.7-3,5.15,5.15,0,0,1,.72-2.94,2.38,2.38,0,0,1,2-1,3,3,0,0,1,1.67.5l-.25.46a2.66,2.66,0,0,0-1.42-.47,1.84,1.84,0,0,0-1.65.9,5,5,0,0,0-.56,2.6,4.9,4.9,0,0,0,.57,2.59,1.8,1.8,0,0,0,1.6.92,3.65,3.65,0,0,0,1.27-.19V54.74H62.76Z"/><path class="cls-1" d="M70.92,58.17l-.68-2.83H68.35l-.68,2.83h-.55L69,50.38h.54l1.91,7.79Zm-.8-3.35-.69-2.9c-.07-.33-.13-.64-.17-.93,0,.31-.08.62-.14.93l-.68,2.9Z"/><path class="cls-1" d="M75.3,56.13a2.28,2.28,0,0,1-.53,1.55,1.77,1.77,0,0,1-1.36.59,3.53,3.53,0,0,1-1.5-.27v-.57a2.32,2.32,0,0,0,.69.25,3.72,3.72,0,0,0,.81.09,1.25,1.25,0,0,0,1-.45,1.81,1.81,0,0,0,.38-1.15,1.65,1.65,0,0,0-.28-1,2.63,2.63,0,0,0-1-.76,3.78,3.78,0,0,1-.9-.59,2.15,2.15,0,0,1-.45-.66,2.69,2.69,0,0,1-.13-.91,2.13,2.13,0,0,1,.23-1,1.9,1.9,0,0,1,.65-.7,1.87,1.87,0,0,1,.93-.24,3.1,3.1,0,0,1,1.41.32l-.2.5a2.67,2.67,0,0,0-1.21-.3,1.23,1.23,0,0,0-.94.39,1.45,1.45,0,0,0-.36,1,1.82,1.82,0,0,0,.26,1,2.89,2.89,0,0,0,1,.75,3.08,3.08,0,0,1,1.16.9,2.12,2.12,0,0,1,.36,1.25"/><path class="cls-1" d="M82.29,52.62a2.45,2.45,0,0,1-.55,1.77,2.21,2.21,0,0,1-1.63.56h-.56v3.22H79V50.38H80.1a2.22,2.22,0,0,1,1.66.54,2.33,2.33,0,0,1,.53,1.7m-2.74,1.85h.53a1.72,1.72,0,0,0,1.3-.43,2.21,2.21,0,0,0,.38-1.42,1.91,1.91,0,0,0-.4-1.35,1.66,1.66,0,0,0-1.23-.41h-.58Z"/><path class="cls-1" d="M83.5 58.17L83.5 50.38 84.02 50.38 84.02 57.66 86.21 57.66 86.21 58.17 83.5 58.17z"/><path class="cls-1" d="M90.11 58.17L87.29 58.17 87.29 50.38 90.11 50.38 90.11 50.88 87.81 50.88 87.81 53.84 89.98 53.84 89.98 54.34 87.81 54.34 87.81 57.66 90.11 57.66 90.11 58.17z"/><path class="cls-1" d="M94.42,58.17l-.68-2.83H91.85l-.68,2.83h-.54l1.87-7.79H93L95,58.17Zm-.8-3.35-.69-2.9c-.07-.33-.13-.64-.17-.93a7.46,7.46,0,0,1-.14.93L92,54.82Z"/><path class="cls-1" d="M98.8,56.13a2.23,2.23,0,0,1-.54,1.55,1.75,1.75,0,0,1-1.35.59,3.53,3.53,0,0,1-1.5-.27v-.57a2.38,2.38,0,0,0,.7.25,3.63,3.63,0,0,0,.8.09,1.23,1.23,0,0,0,1-.45,1.7,1.7,0,0,0,.38-1.15,1.79,1.79,0,0,0-.26-1A2.67,2.67,0,0,0,97,54.39a3.69,3.69,0,0,1-.89-.59,1.85,1.85,0,0,1-.45-.66,2.68,2.68,0,0,1-.14-.91,2.13,2.13,0,0,1,.24-1,1.75,1.75,0,0,1,.65-.7,1.81,1.81,0,0,1,.93-.24,3.12,3.12,0,0,1,.82.1,2.72,2.72,0,0,1,.57.22l-.2.5a2.62,2.62,0,0,0-1.19-.3,1.21,1.21,0,0,0-.94.39,1.45,1.45,0,0,0-.36,1,1.75,1.75,0,0,0,.25,1,2.89,2.89,0,0,0,1,.75,3,3,0,0,1,1.15.9,2.12,2.12,0,0,1,.37,1.25"/><path class="cls-1" d="M103.87,50.38v5.26c0,1.75-.63,2.63-1.88,2.63a1.7,1.7,0,0,1-1.45-.68,3.34,3.34,0,0,1-.49-2V50.38h.53V55.7a2.8,2.8,0,0,0,.36,1.55,1.2,1.2,0,0,0,1,.52,1.15,1.15,0,0,0,1-.52,2.93,2.93,0,0,0,.34-1.57v-5.3Z"/><path class="cls-1" d="M106,54.76v3.41h-.51V50.38h1.06a2.25,2.25,0,0,1,1.67.54,2.21,2.21,0,0,1,.52,1.61,2.65,2.65,0,0,1-.29,1.33,1.71,1.71,0,0,1-1,.78l1.54,3.53h-.59L107,54.76Zm0-.48h.74a1.38,1.38,0,0,0,1.09-.43,2,2,0,0,0,.38-1.3,1.74,1.74,0,0,0-.39-1.27,1.69,1.69,0,0,0-1.24-.38H106Z"/><path class="cls-1" d="M112.97 58.17L110.14 58.17 110.14 50.38 112.97 50.38 112.97 50.88 110.66 50.88 110.66 53.84 112.83 53.84 112.83 54.34 110.66 54.34 110.66 57.66 112.97 57.66 112.97 58.17z"/></g></g></svg>