<svg width="34" height="34" viewBox="0 0 34 34" fill="none" xmlns="http://www.w3.org/2000/svg"><path d="M32.5327 16.9337L30.8091 13.4909C30.6775 13.2274 30.3572 13.1205 30.0937 13.2521C30.0831 13.2574 30.0727 13.263 30.0625 13.269L23.6632 17.002C23.4125 17.1482 23.3248 17.4682 23.4659 17.7219L25.6908 21.7311H20.7313V19.598C20.7314 19.3035 20.4927 19.0646 20.1982 19.0645C20.0479 19.0644 19.9045 19.1278 19.8034 19.2391L14.4706 25.1051C14.2969 25.2963 14.2852 25.5846 14.4429 25.7893L19.7757 32.7219C19.9554 32.9551 20.2903 32.9984 20.5236 32.8187C20.6545 32.7177 20.7312 32.5619 20.7313 32.3966V30.7967H24.4642C25.7791 30.8291 26.9957 30.103 27.5913 28.9303L31.3243 22.5342L32.4335 20.7424C33.1509 19.5836 33.1889 18.1283 32.5327 16.9337ZM26.664 28.4055C26.2531 29.2395 25.3935 29.7571 24.4642 29.7302H20.198C19.9035 29.7302 19.6647 29.969 19.6647 30.2635V30.8287L15.5585 25.4928L19.6647 20.977V22.2643C19.6647 22.5588 19.9035 22.7976 20.198 22.7976H29.9351L26.664 28.4055ZM31.5243 20.1835L30.5644 21.73H26.9109L24.6509 17.6627L30.1079 14.4785L31.5877 17.4329C32.0654 18.2938 32.0411 19.3455 31.5243 20.1835Z" fill="#A9678F" stroke="#A9678F" stroke-width=".75"/><path d="M30.0282 5.78629C29.8783 5.7137 29.7032 5.71523 29.5546 5.79056L27.2562 6.9563L25.4574 3.8665C24.8417 2.71243 23.6378 1.99397 22.3298 2.00004H13.4411C12.114 2.00324 10.8845 2.6981 10.1972 3.83344L8.54405 6.52008C8.39127 6.76832 8.46606 7.09322 8.71203 7.2496L14.5781 10.9825C14.6635 11.0369 14.7626 11.0657 14.8639 11.0657C14.9082 11.0658 14.9522 11.0602 14.9951 11.0492C15.1374 11.0131 15.2586 10.9199 15.33 10.7916L17.5697 6.76165L20.0228 11.4012L17.7895 12.7413C17.5933 12.8589 17.494 13.0884 17.5425 13.3119C17.5909 13.5353 17.7762 13.703 18.0033 13.7289L25.94 14.6312C25.96 14.6333 25.9802 14.6344 26.0003 14.6344C26.2047 14.6344 26.3911 14.5176 26.4802 14.3336L30.2756 6.49875C30.404 6.23364 30.2932 5.91468 30.0282 5.78629ZM14.6725 9.77833L9.72739 6.632L11.1086 4.38798C11.6019 3.57027 12.4862 3.06932 13.4411 3.06652H15.6062L16.9277 5.71957L14.6725 9.77833ZM25.6851 13.5289L19.6868 12.8468L21.0046 12.0559C21.2471 11.9101 21.3335 11.6002 21.2013 11.3499L16.8216 3.06652H22.3298C23.256 3.06519 24.1061 3.579 24.5354 4.39971L26.5874 7.92626C26.7299 8.16997 27.0375 8.26043 27.2892 8.13264L28.6256 7.45538L25.6851 13.5289Z" fill="#A9678F" stroke="#A9678F" stroke-width=".75"/><path d="M13.7501 17.7747L10.5505 10.8421C10.4585 10.6417 10.2527 10.5186 10.0327 10.5323L1.50026 11.0656C1.20629 11.0838 0.98278 11.3369 1.00104 11.6308C1.01178 11.8034 1.10537 11.96 1.25228 12.0511L1.25282 12.0521L3.88933 13.6871L2.12952 17.211C1.49166 18.3699 1.49532 19.7756 2.13912 20.9312L5.1068 26.0559L6.72956 28.8668C7.42648 30.0507 8.69254 30.783 10.0663 30.7968H12.1994C12.4939 30.7968 12.7326 30.558 12.7326 30.2635V22.7976C12.7326 22.5031 12.4939 22.2644 12.1994 22.2644H8.21526L10.8752 17.6489L13.0745 18.4957C13.3494 18.6013 13.6579 18.4642 13.7636 18.1893C13.8153 18.0549 13.8104 17.9054 13.7501 17.7747ZM11.6661 23.3309V29.7302H10.0663C9.0725 29.7206 8.1564 29.191 7.65212 28.3346L6.18828 25.7984L7.69852 23.3309H11.6661ZM10.8326 16.4895C10.5875 16.3954 10.3104 16.4935 10.1793 16.721L5.56648 24.7244L3.06222 20.3979C2.60187 19.5568 2.60874 18.5376 3.08035 17.7027L5.0636 13.7277C5.18779 13.4806 5.1026 13.1797 4.86736 13.0344L3.23607 12.0255L9.7351 11.6207L12.2308 17.0281L10.8326 16.4895Z" fill="#A9678F" stroke="#A9678F" stroke-width=".75"/></svg>