<svg width="32" height="32" viewBox="0 0 32 32" fill="none" xmlns="http://www.w3.org/2000/svg"><g clip-path="url(#clip0)"><path d="M30.9707 10.2205C31.9883 5.13306 32 1.10645 32 0.9375C32 0.688965 31.9014 0.450439 31.7253 0.274658C31.5496 0.0988769 31.3113 0 31.0625 0C30.8936 0 26.8669 0.0117188 21.7795 1.0293C19.967 1.3916 18.2498 1.83789 16.6423 2.36133C16.6313 2.3645 16.6208 2.36816 16.6101 2.37183C15.5696 2.71167 14.575 3.08398 13.6323 3.48779C12.4795 3.98193 11.4019 4.52417 10.4028 5.11182C10.3726 5.12793 10.343 5.14551 10.3147 5.16479C8.71191 6.11621 7.31274 7.1853 6.1355 8.36255C3.79785 10.7002 2.5105 13.8079 2.5105 17.1135C2.5105 20.1047 3.5647 22.9338 5.49707 25.177L0.274658 30.3997C-0.0915527 30.7659 -0.0915527 31.3594 0.274658 31.7253C0.457764 31.9084 0.69751 32 0.9375 32C1.17749 32 1.41748 31.9084 1.60034 31.7253L6.823 26.5029C9.06592 28.4351 11.895 29.4893 14.8862 29.4893C18.1921 29.4893 21.2998 28.2021 23.6375 25.8647C24.8149 24.6873 25.8838 23.2878 26.8352 21.6851C26.8545 21.6567 26.8721 21.6272 26.8882 21.5969C27.4758 20.5977 28.0181 19.5203 28.512 18.3677C28.9165 17.4238 29.2891 16.4282 29.6294 15.3865C29.6323 15.3777 29.6353 15.3687 29.6379 15.3599C30.1616 13.7517 30.6082 12.0337 30.9707 10.2205ZM22.1111 2.875C25.5945 2.17578 28.6191 1.96533 30.0979 1.9021C30.0347 3.3811 29.8242 6.40576 29.125 9.88892C28.8623 11.1975 28.512 12.6516 28.0488 14.1541L19.1714 14.1543L24.625 8.70093C24.991 8.33472 24.991 7.74097 24.625 7.375C24.2588 7.00879 23.6653 7.00879 23.2991 7.375L17.8459 12.8284V3.95117C19.3484 3.48804 20.8025 3.1377 22.1111 2.875ZM25.5112 20.2202H13.1055L17.2964 16.0293L27.4167 16.0291C26.896 17.4443 26.2683 18.8672 25.5112 20.2202ZM15.9709 4.58325V14.7031L11.7798 18.894L11.7795 6.48877C13.1328 5.73169 14.5554 5.104 15.9709 4.58325ZM4.3855 17.1135C4.3855 14.3088 5.47778 11.6719 7.46118 9.68848C8.2085 8.94116 9.03149 8.26685 9.90454 7.65845L9.90503 20.769L6.82788 23.8464C5.24683 21.9609 4.3855 19.6035 4.3855 17.1135ZM22.3118 24.5391C20.3284 26.5222 17.6912 27.6143 14.8862 27.6143C12.3965 27.6143 10.0391 26.7529 8.15356 25.1721L11.2305 22.0952H24.3418C23.7334 22.9685 23.0591 23.7915 22.3118 24.5391Z" fill="#768703"/></g><defs><clipPath id="clip0"><path fill="#fff" d="M0 0H32V32H0z"/></clipPath></defs></svg>