<svg width="19" height="19" viewBox="0 0 19 19" fill="none" xmlns="http://www.w3.org/2000/svg"><path d="M18.4062 13.0625C18.0785 13.0625 17.8125 13.3285 17.8125 13.6562V17.8125H1.18752V13.6562C1.18752 13.3285 0.921498 13.0625 0.593784 13.0625C0.26607 13.0625 0 13.3285 0 13.6562V18.4062C0 18.734 0.266021 18.9999 0.593735 18.9999H18.4062C18.734 18.9999 19 18.7339 19 18.4062V13.6562C19 13.3285 18.734 13.0625 18.4062 13.0625Z" fill="#74953D"/><path d="M9.06611 14.076C9.29709 14.3046 9.68364 14.307 9.91457 14.076L14.0702 9.97913C14.3047 9.74697 14.3042 9.37114 14.0702 9.13956C13.8363 8.9074 13.4563 8.9074 13.2224 9.13956L10.0903 12.2271V0.593735C10.0903 0.265971 9.82193 0 9.49061 0C9.15929 0 8.8909 0.266021 8.8909 0.593735V12.2271L5.75887 9.13956C5.52434 8.9074 5.14495 8.9074 4.91101 9.13956C4.67647 9.37173 4.67647 9.74756 4.91101 9.97913L9.06611 14.076Z" fill="#74953D"/></svg>