<svg width="48" height="48" viewBox="0 0 48 48" fill="none" xmlns="http://www.w3.org/2000/svg"><path d="M24 30.2812C24.5175 30.2812 24.9375 29.8612 24.9375 29.3438C24.9375 28.8263 24.5175 28.4062 24 28.4062C23.4825 28.4062 23.0625 28.8263 23.0625 29.3438C23.0625 29.8612 23.4825 30.2812 24 30.2812Z" fill="#fff"/><path d="M29.1266 23.1786C31.3019 21.8569 33.1025 19.9966 34.3345 17.7982C35.5466 15.635 36.1875 13.1873 36.1875 10.7194V5.46387C37.2788 5.07678 38.0625 4.03455 38.0625 2.8125V0.9375C38.0625 0.419678 37.6428 0 37.125 0H10.875C10.3572 0 9.9375 0.419678 9.9375 0.9375V2.8125C9.9375 4.03455 10.7212 5.07678 11.8125 5.46387V10.7194C11.8125 13.1873 12.4534 15.635 13.6655 17.7982C14.8975 19.9966 16.6985 21.8573 18.8738 23.1786C19.1517 23.3474 19.318 23.6547 19.318 24C19.318 24.3457 19.1517 24.6526 18.8738 24.8218C16.6985 26.1431 14.8975 28.0034 13.6655 30.2018C12.4534 32.365 11.8125 34.8127 11.8125 37.2806V42.5361C10.7212 42.9232 9.9375 43.9655 9.9375 45.1875V47.0625C9.9375 47.5803 10.3572 48 10.875 48H37.125C37.6428 48 38.0625 47.5803 38.0625 47.0625V45.1875C38.0625 43.9655 37.2788 42.9232 36.1875 42.5361V37.2806C36.1875 34.8127 35.5466 32.365 34.3345 30.2018C33.1025 28.0034 31.3015 26.1427 29.1262 24.8214C28.8483 24.6526 28.682 24.3453 28.682 24C28.682 23.6543 28.8483 23.3474 29.1266 23.1786ZM11.8125 1.875H36.1875V2.8125C36.1875 3.32959 35.7671 3.75 35.25 3.75H12.75C12.2329 3.75 11.8125 3.32959 11.8125 2.8125V1.875ZM36.1875 46.125H11.8125V45.1875C11.8125 44.6704 12.2329 44.25 12.75 44.25H35.25C35.7671 44.25 36.1875 44.6704 36.1875 45.1875V46.125ZM28.1532 26.424C32.0098 28.767 34.3125 32.8257 34.3125 37.2806V42.375H13.6875V37.2806C13.6875 32.8257 15.9902 28.767 19.8468 26.424C20.6898 25.9124 21.193 25.006 21.193 24C21.193 22.994 20.6898 22.0876 19.8468 21.576C15.9902 19.233 13.6875 15.1743 13.6875 10.7194V5.625H34.3125V10.7194C34.3125 15.1743 32.0098 19.233 28.1532 21.576C27.3102 22.0876 26.807 22.994 26.807 24C26.807 25.006 27.3102 25.9124 28.1532 26.424Z" fill="#fff"/><path d="M24.7471 32.4807C24.5702 32.2449 24.2926 32.1057 23.9978 32.1057C23.9978 32.1057 23.9974 32.1057 23.9971 32.1057C23.7026 32.1057 23.425 32.2441 23.2482 32.4792C22.8948 32.9495 22.4546 33.349 21.9401 33.668C20.8663 34.3147 19.9072 34.719 19.0605 35.076C17.1833 35.8678 15.5625 36.5515 15.5625 39.1501V39.5625C15.5625 40.0803 15.9822 40.5 16.5 40.5H31.5C32.0178 40.5 32.4375 40.0803 32.4375 39.5625V39.1501C32.4375 36.553 30.8126 35.8663 28.9314 35.0709C28.0778 34.7098 27.1102 34.3011 26.0229 33.6467C25.5245 33.3373 25.0953 32.9447 24.7471 32.4807V32.4807ZM30.5255 38.625H17.4741C17.6169 37.7585 18.2076 37.4707 19.7893 36.8038C20.6503 36.4406 21.7214 35.989 22.9127 35.2712C22.9156 35.269 22.9189 35.2672 22.9219 35.2654C23.3108 35.0248 23.67 34.7498 23.9963 34.4432C24.3146 34.7424 24.6632 35.0098 25.04 35.2434C25.0433 35.2452 25.0466 35.2474 25.0499 35.2493C26.254 35.9744 27.3336 36.431 28.2012 36.798C29.7894 37.4692 30.3823 37.7585 30.5255 38.625Z" fill="#fff"/><path d="M32.4375 10.725V9.0001C32.4375 8.65916 32.2526 8.34531 31.9545 8.18015C31.6564 8.01463 31.2924 8.02451 31.0031 8.20506C28.901 9.51902 26.4796 10.2134 24 10.2134C21.5208 10.2134 19.099 9.51902 16.9969 8.20506C16.7076 8.02451 16.3436 8.01499 16.0455 8.18015C15.7474 8.34531 15.5625 8.65916 15.5625 9.0001V10.725C15.5625 12.3465 16.1887 14.0919 17.373 15.7721C18.5208 17.4003 20.1127 18.8545 21.9771 19.9784C22.3557 20.2139 22.7267 20.5478 23.0625 20.9514V25.5939C23.0625 26.1117 23.4822 26.5314 24 26.5314C24.5175 26.5314 24.9375 26.1117 24.9375 25.5939V20.9532C25.2795 20.5449 25.663 20.2032 26.0599 19.9571C29.8748 17.6562 32.4375 13.9469 32.4375 10.725ZM25.0873 18.3539C25.0844 18.3561 25.0811 18.3575 25.0781 18.3597C24.7042 18.5908 24.342 18.8768 24.0033 19.2057C23.6748 18.8841 23.3258 18.6084 22.96 18.3817C22.9567 18.3795 22.9534 18.3777 22.9501 18.3755C19.6527 16.3895 17.4375 13.3152 17.4375 10.725V10.5869C19.4777 11.5727 21.7174 12.0884 24 12.0884C26.2826 12.0884 28.5223 11.5727 30.5625 10.5869V10.725C30.5625 13.2745 28.311 16.4115 25.0873 18.3539Z" fill="#fff"/></svg>