<svg width="48" height="48" viewBox="0 0 48 48" fill="none" xmlns="http://www.w3.org/2000/svg"><path d="M44.7838 12.0084C41.5792 6.45792 36.4051 2.4877 30.2144 0.828889C24.0239 -0.829924 17.5577 0.02142 12.0073 3.22589C6.4569 6.43036 2.48659 11.6046 0.827871 17.7952C-0.830848 23.9858 0.0204016 30.452 3.22487 36.0024C6.09934 40.9812 10.668 44.765 16.0892 46.6567C18.6589 47.5533 21.3416 48.0008 24.0201 48.0008C26.9325 48.0008 29.8396 47.4715 32.5875 46.4154C33.0707 46.2297 33.3119 45.6873 33.1261 45.204C32.9402 44.7208 32.3978 44.4794 31.9147 44.6655C24.6003 47.4767 16.682 46.1994 10.7661 41.7588L11.606 37.3746L12.0107 37.2432C13.5401 36.7463 14.3801 35.0978 13.8834 33.5684L13.5864 32.6544C13.5177 32.4429 13.5181 32.2193 13.5873 32.008C13.8479 31.2137 13.7548 30.3448 13.3319 29.6236C12.909 28.9026 12.196 28.397 11.3756 28.2366L9.25965 27.8232L5.17703 24.7191C4.93243 24.5331 4.61228 24.4788 4.31996 24.5737L1.92971 25.3501C1.879 24.4952 1.87825 23.6406 1.92643 22.7905C2.02075 22.8783 2.08215 22.938 2.11993 22.9772C2.16671 23.0551 2.22465 23.1266 2.29253 23.1885C2.48771 23.3662 2.66453 23.4468 3.03578 23.4468C3.37693 23.4467 3.88196 23.3788 4.71587 23.2556C5.50675 23.1387 6.2935 23.007 6.30128 23.0056C6.61656 22.9529 6.88309 22.7429 7.00853 22.449C7.13396 22.155 7.10087 21.8174 6.92078 21.5532L5.77131 19.8672L7.41775 18.6899C7.52743 18.6114 7.61893 18.5102 7.68596 18.3932L10.2381 13.9378L11.2668 12.8355C12.3181 11.7088 12.6181 10.0604 12.031 8.63573C11.6847 7.79545 11.0798 7.09589 10.3232 6.62442C11.1426 5.98026 12.0163 5.38551 12.9448 4.84955C16.3515 2.88267 20.0692 1.92951 23.7479 1.89305L22.0739 3.99295L15.8662 6.16917C15.6141 6.25748 15.4116 6.44929 15.3098 6.69623L13.5762 10.8989C13.4531 11.1975 13.4922 11.5381 13.6798 11.801L16.2118 15.3478C15.8492 15.6786 15.4962 16.1605 15.0746 16.7588C14.8897 17.0212 14.7152 17.269 14.5945 17.4079C14.4896 17.5289 14.3846 17.647 14.2805 17.764C13.7359 18.3766 13.1729 19.0103 12.7728 19.8567C11.8933 21.7185 12.0709 23.8824 13.2364 25.5041C14.3634 27.072 16.2213 27.8691 18.2043 27.6359C18.5274 27.598 18.8286 27.5234 19.1201 27.4513C19.9238 27.2524 20.1784 27.2325 20.4362 27.4739C20.5617 27.5913 20.5732 27.6135 20.5707 28.0119C20.5689 28.2654 20.5669 28.5808 20.6543 28.9409C20.7943 29.5169 21.1561 29.9151 21.4467 30.235C21.5912 30.3939 21.7406 30.5583 21.7866 30.6687C22.079 31.3694 21.9517 31.7574 21.6727 32.6077C21.6488 32.6805 21.6244 32.7547 21.6 32.8308C21.1761 34.1429 21.7669 35.4443 22.2882 36.5924C22.4575 36.9652 22.6173 37.3171 22.7221 37.6282C23.565 40.1294 24.1968 40.7022 24.7039 40.9328C24.9695 41.0535 25.2444 41.1065 25.5221 41.1064C26.8735 41.1063 28.2837 39.8516 28.9315 39.0561C29.3384 38.5566 29.4386 38.0564 29.5117 37.6911C29.5482 37.5094 29.5769 37.366 29.6316 37.2722C29.7154 37.1288 29.8142 37.0176 29.9391 36.8768C30.1905 36.5938 30.5033 36.2416 30.7059 35.6033C30.8598 35.1184 30.9717 34.9995 31.3421 34.605C31.4066 34.5365 31.4753 34.4632 31.5491 34.383C32.7977 33.0242 32.4762 31.9863 32.1356 30.8874C31.849 29.9627 32.3503 29.3714 33.5623 28.2427C34.0877 27.7534 34.6308 27.2475 35.0507 26.6397C35.2345 26.3736 35.7935 25.5643 35.4476 24.762C35.1085 23.9755 34.2467 23.8433 33.5542 23.7372C33.2807 23.6952 32.8675 23.6318 32.736 23.5458C32.1559 23.1666 31.8011 22.3752 31.4579 21.6097C31.3895 21.4574 31.3221 21.307 31.2538 21.161C31.1319 20.9006 31.0101 20.5855 30.8812 20.2519C30.5402 19.3692 30.1536 18.3686 29.4956 17.6711C28.9041 17.0444 27.7892 16.7425 26.8054 16.476C26.4746 16.3865 26.1623 16.302 25.9563 16.2259C25.7837 16.1622 25.5964 16.1506 25.4177 16.1926C24.939 16.3049 24.6403 16.4285 24.4185 16.6063C24.3599 16.6532 24.1863 16.8075 24.0847 17.0553C23.7415 16.8906 23.2696 16.5761 22.9791 16.3825C22.9731 16.3785 22.967 16.3744 22.961 16.3704C23.0589 15.9787 22.9703 15.6644 22.8775 15.468C22.3538 14.3603 20.6154 14.447 20.2725 14.4762C20.0777 14.4925 19.8312 14.5012 19.5705 14.5104C19.161 14.5249 18.7083 14.5412 18.2605 14.5915L18.2836 14.5272C18.6235 13.58 19.528 12.9436 20.5343 12.9436H21.0673C21.5849 12.9436 22.0047 12.5238 22.0047 12.0062C22.0047 11.4886 21.5849 11.0688 21.0673 11.0688H20.5343C19.0403 11.0688 17.6722 11.8551 16.9054 13.0927L15.5072 11.134L16.8828 7.79939L22.9487 5.67276C23.1151 5.61445 23.2617 5.51039 23.3717 5.37248L26.0682 1.99008C32.9582 2.64548 39.4439 6.50854 43.1603 12.9456C44.1502 14.6602 44.8825 16.4653 45.3693 18.3115L44.9719 18.6659C44.4532 19.1287 44.1493 19.7925 44.1377 20.4873C44.1376 20.4949 44.1374 20.5024 44.1371 20.5099L43.4897 18.7294C43.3932 18.4637 43.2511 18.2201 43.0675 18.0053L41.9126 16.6531C41.4648 16.129 40.8129 15.8285 40.1237 15.8285H38.7101C38.2082 15.8285 37.7496 16.1034 37.5129 16.5456C37.2762 16.9879 37.3021 17.5221 37.5804 17.9395L37.7235 18.1543C36.81 18.9398 35.7534 19.5684 34.6284 19.9923L32.6906 16.2805V15.4524C32.6906 15.1963 32.5858 14.9511 32.4004 14.7744L30.6555 13.1085C30.5592 13.0167 30.4444 12.9464 30.3189 12.9022L28.7481 12.3502C28.2594 12.1783 27.7245 12.4354 27.5529 12.9238C27.3812 13.4123 27.638 13.9473 28.1265 14.119L29.5068 14.6041L30.8158 15.8535V16.5105C30.8158 16.6616 30.8523 16.8105 30.9223 16.9444L33.3482 21.5913C33.5664 22.0095 34.0616 22.2005 34.5035 22.037L35.2099 21.7766C36.851 21.1713 38.3721 20.1977 39.6089 18.9612C39.9248 18.6451 39.9739 18.1502 39.726 17.7783L39.6761 17.7034H40.1237C40.2637 17.7034 40.3962 17.7645 40.4871 17.871L41.642 19.2231C41.6792 19.2667 41.708 19.316 41.7277 19.3701L43.0022 22.8748C43.1117 23.1759 43.3675 23.4001 43.6801 23.4695C43.7476 23.4844 43.8155 23.4917 43.8831 23.4917C44.129 23.4917 44.3684 23.3949 44.5459 23.2171L45.1526 22.6105C45.5368 22.2262 45.8012 21.74 45.9276 21.201C46.8659 28.7203 43.9175 36.4985 37.6856 41.3898C37.2782 41.7094 37.2072 42.2986 37.527 42.706C37.8466 43.1133 38.4357 43.1844 38.8431 42.8646C43.3424 39.3333 46.4333 34.2825 47.5466 28.6426C48.6703 22.9484 47.6892 17.0407 44.7838 12.0084ZM4.43265 26.5084L8.29825 29.4476C8.41253 29.5345 8.54509 29.5939 8.6859 29.6214L11.0158 30.0766C11.3132 30.1348 11.5612 30.3106 11.7145 30.572C11.8678 30.8333 11.9 31.1356 11.8057 31.4235C11.6117 32.0154 11.6107 32.6414 11.8032 33.2336L12.1002 34.1475C12.2777 34.6936 11.9775 35.2825 11.4314 35.46L10.4998 35.7627C10.1747 35.8682 9.93306 36.1424 9.86884 36.4778L9.11903 40.3918C7.47062 38.883 6.02331 37.0999 4.84853 35.0651C3.41528 32.5829 2.51978 29.9353 2.12509 27.2581L4.43265 26.5084ZM9.89612 11.5563L8.79334 12.7379C8.74412 12.7906 8.70109 12.849 8.66518 12.9116L6.16093 17.2837L3.93521 18.8752C3.52065 19.1716 3.41884 19.7447 3.7059 20.1659L4.53831 21.3869C4.0585 21.4583 3.6279 21.5172 3.34159 21.5484C3.28656 21.4956 3.229 21.4421 3.16946 21.3868C2.94662 21.1798 2.63696 20.9033 2.17534 20.4993C2.93668 15.7872 5.20731 11.3479 8.77843 7.95933C9.46225 8.17467 10.0234 8.68476 10.2976 9.35011C10.606 10.0984 10.4483 10.9645 9.89612 11.5563ZM17.5396 16.6791C17.9577 16.4438 18.9282 16.4094 19.6367 16.3843C19.9207 16.3742 20.189 16.3647 20.4287 16.3446C20.5551 16.334 20.6956 16.336 20.828 16.3463C20.7689 16.4982 20.7497 16.6649 20.7753 16.8302C20.8204 17.1211 20.9998 17.3738 21.2593 17.5126C21.4352 17.6068 21.6799 17.77 21.9391 17.9428C22.6717 18.4312 23.5022 18.9848 24.2824 19.0345C24.9919 19.0805 25.3867 18.6762 25.5558 18.504C25.5693 18.4903 25.5821 18.4766 25.5956 18.4641C25.6908 18.3865 25.7801 18.2824 25.8465 18.1569C25.9964 18.1997 26.1539 18.2424 26.3153 18.2862C26.8704 18.4365 27.9036 18.7162 28.1319 18.9581C28.5374 19.3879 28.8534 20.2061 29.1323 20.9279C29.2732 21.2926 29.4063 21.6369 29.5557 21.9561C29.6198 22.0931 29.6829 22.2342 29.747 22.377C30.1796 23.3419 30.6699 24.4356 31.7101 25.1155C32.1817 25.4238 32.7599 25.5124 33.2701 25.5907C33.3317 25.6002 33.4024 25.611 33.4742 25.6229C33.1714 26.0453 32.7403 26.4467 32.2847 26.871C31.1242 27.9517 29.6799 29.2968 30.3451 31.4427C30.659 32.4559 30.6737 32.5654 30.1688 33.1146C30.1 33.1895 30.0359 33.2578 29.9758 33.3217C29.5434 33.782 29.2019 34.1456 28.9191 35.0362C28.837 35.2949 28.7306 35.4147 28.5374 35.6322C28.3829 35.8062 28.1904 36.0229 28.0129 36.3267C27.8003 36.6906 27.73 37.041 27.6737 37.3226C27.6181 37.5996 27.5866 37.7386 27.4778 37.8721C27.2302 38.1761 26.7684 38.6174 26.2943 38.9187C25.8537 39.1984 25.5964 39.2367 25.5088 39.2314C25.4087 39.1242 25.0464 38.6546 24.4989 37.0296C24.3639 36.6287 24.1766 36.2162 23.9955 35.8173C23.5962 34.9379 23.1834 34.0286 23.3842 33.4071C23.4079 33.3338 23.4314 33.2622 23.4544 33.1921C23.7752 32.2143 24.0781 31.291 23.5171 29.9466C23.3462 29.5372 23.0743 29.238 22.8346 28.974C22.6794 28.8033 22.5036 28.6098 22.4765 28.4985C22.4435 28.3626 22.4446 28.2058 22.4458 28.0242C22.449 27.5343 22.4538 26.7942 21.718 26.1051C20.6806 25.134 19.4708 25.4332 18.6702 25.6312C18.4243 25.692 18.192 25.7495 17.9861 25.7737C16.6691 25.928 15.4933 25.4311 14.7592 24.4096C13.9913 23.3412 13.8798 21.9033 14.4684 20.6574C14.7533 20.0545 15.1837 19.5701 15.6821 19.0095C15.7909 18.8869 15.9008 18.7634 16.0107 18.6368C16.1935 18.426 16.3947 18.1407 16.6074 17.8385C16.8614 17.478 17.3342 16.8068 17.5396 16.6791Z" fill="#fff"/></svg>