<svg width="48" height="42" viewBox="0 0 48 42" fill="none" xmlns="http://www.w3.org/2000/svg"><path d="M35.5312 0.375C30.2058 0.375 26.2987 3.94446 24.0022 8.67883C22.9028 6.4043 20.7111 2.96997 16.9794 1.31506C16.5062 1.10522 15.9521 1.31873 15.7423 1.79187C15.5325 2.26538 15.746 2.81909 16.2191 3.02893C21.156 5.21851 23.0841 11.3672 23.1028 11.428C23.2222 11.8228 23.5862 12.0927 23.9989 12.093H24C24.4124 12.093 24.7764 11.8235 24.8969 11.4291C26.0087 7.76624 29.6239 2.25 35.5312 2.25C41.4716 2.25 46.125 7.25427 46.125 13.6425C46.125 16.7871 44.9513 19.6494 42.3296 22.875H34.8395L31.9351 12.3138C31.8256 11.9161 31.4689 11.6364 31.0562 11.6254C30.6464 11.6125 30.2725 11.8744 30.1417 12.2662L25.4062 26.473L23.4833 20.7037C23.3555 20.3207 22.9973 20.0625 22.5938 20.0625H17.6444L15.0458 12.2662C14.915 11.8744 14.5455 11.6104 14.1313 11.6254C13.7186 11.6364 13.3616 11.9161 13.2524 12.3138L10.348 22.875H5.67041C3.04871 19.6494 1.875 16.7871 1.875 13.6425C1.875 8.80994 4.54285 4.62085 8.67151 2.97034C9.15234 2.77808 9.38635 2.23242 9.19409 1.75159C9.0022 1.27075 8.45654 1.03674 7.97571 1.22937C3.23254 3.12524 0 7.99292 0 13.6425C0 16.7992 1.05872 19.7706 3.30762 22.875H0.9375C0.419678 22.875 0 23.2947 0 23.8125C0 24.3303 0.419678 24.75 0.9375 24.75H4.79443C8.95898 29.5935 15.5922 34.5769 23.3826 41.3932C23.5594 41.5477 23.7795 41.625 24 41.625C24.2205 41.625 24.4406 41.5477 24.6174 41.3932C32.3987 34.585 39.0436 29.5909 43.2056 24.75H47.0625C47.5803 24.75 48 24.3303 48 23.8125C48 23.2947 47.5803 22.875 47.0625 22.875H44.6924C46.9413 19.7703 48 16.7992 48 13.6425C48 6.46069 42.7328 0.375 35.5312 0.375ZM24 39.4435C17.1738 33.5068 11.2991 28.9827 7.31799 24.75H11.0625C11.4844 24.75 11.8546 24.468 11.9663 24.0612L14.2423 15.7852L16.0792 21.2963C16.207 21.6793 16.5652 21.9375 16.9688 21.9375H21.9181L24.5167 29.7338C24.6442 30.1168 25.0027 30.375 25.4062 30.375C25.8098 30.375 26.168 30.1168 26.2954 29.7338L30.9452 15.7852L33.2208 24.0612C33.3329 24.468 33.7028 24.7489 34.125 24.7489H40.682C36.7024 28.9801 30.817 33.5149 24 39.4435Z" fill="#fff"/></svg>