<svg width="32" height="32" viewBox="0 0 32 32" fill="none" xmlns="http://www.w3.org/2000/svg"><g clip-path="url(#clip0)" fill="#74953D"><path d="M25.2907 19.823C24.6356 19.1409 23.8454 18.7761 23.0079 18.7761C22.1772 18.7761 21.3803 19.1341 20.6981 19.8162L18.5639 21.9437C18.3883 21.8491 18.2127 21.7613 18.0439 21.6735C17.8008 21.552 17.5711 21.4371 17.3753 21.3156C15.3761 20.0459 13.5594 18.3912 11.8169 16.2502C10.9726 15.1831 10.4053 14.2849 9.99334 13.3731C10.5472 12.8666 11.0604 12.3398 11.5602 11.8332C11.7493 11.6441 11.9384 11.4482 12.1275 11.2591C13.5458 9.84084 13.5458 8.0038 12.1275 6.5855L10.2838 4.74171C10.0744 4.53234 9.85826 4.31622 9.65565 4.1001C9.25042 3.68136 8.82493 3.24911 8.38593 2.84389C7.73081 2.19552 6.94737 1.85107 6.1234 1.85107C5.29943 1.85107 4.50248 2.19552 3.8271 2.84389C3.82035 2.85064 3.82035 2.85064 3.81359 2.85739L1.5173 5.17395C0.652807 6.03844 0.159778 7.09204 0.0517168 8.31448C-0.110375 10.2866 0.470454 12.1236 0.916206 13.3258C2.01032 16.2772 3.64475 19.0125 6.08288 21.9437C9.04105 25.4759 12.6003 28.2653 16.6661 30.2306C18.2195 30.9668 20.2929 31.838 22.6095 31.9866C22.7513 31.9934 22.8999 32.0001 23.035 32.0001C24.5951 32.0001 25.9053 31.4396 26.9319 30.3252C26.9387 30.3117 26.9522 30.3049 26.9589 30.2914C27.3101 29.8659 27.7154 29.4809 28.1409 29.069C28.4313 28.7921 28.7284 28.5016 29.0188 28.1977C29.6875 27.5021 30.0387 26.6916 30.0387 25.8609C30.0387 25.0234 29.6807 24.2197 28.9986 23.5443L25.2907 19.823ZM27.7086 26.9348C27.7019 26.9348 27.7019 26.9415 27.7086 26.9348C27.4452 27.2184 27.1751 27.4751 26.8846 27.7587C26.4456 28.1775 25.9999 28.6165 25.5812 29.1095C24.899 29.8389 24.0953 30.1833 23.0417 30.1833C22.9404 30.1833 22.8323 30.1833 22.731 30.1766C20.7252 30.0483 18.8611 29.2648 17.4631 28.5962C13.6404 26.7456 10.2838 24.1184 7.49443 20.7888C5.19137 18.013 3.6515 15.4465 2.63168 12.691C2.00357 11.0093 1.77394 9.69901 1.87525 8.46306C1.94279 7.67287 2.24671 7.01775 2.80728 6.45718L5.11033 4.15413C5.44126 3.84345 5.79246 3.67461 6.13691 3.67461C6.5624 3.67461 6.90684 3.93125 7.12297 4.14737C7.12972 4.15413 7.13647 4.16088 7.14323 4.16763C7.55521 4.5526 7.94693 4.95108 8.35891 5.37657C8.56828 5.59269 8.7844 5.80881 9.00053 6.03169L10.8443 7.87548C11.5602 8.59139 11.5602 9.25326 10.8443 9.96916C10.6485 10.165 10.4594 10.3609 10.2635 10.55C9.69617 11.1308 9.15587 11.6711 8.56828 12.1979C8.55478 12.2114 8.54127 12.2182 8.53451 12.2317C7.95369 12.8125 8.06175 13.3798 8.18332 13.7648C8.19007 13.7851 8.19682 13.8053 8.20358 13.8256C8.6831 14.9873 9.35848 16.0814 10.3851 17.3849L10.3918 17.3916C12.2559 19.6879 14.2212 21.4777 16.3892 22.8487C16.6661 23.0243 16.9498 23.1661 17.2199 23.3012C17.4631 23.4228 17.6927 23.5376 17.8886 23.6592C17.9156 23.6727 17.9426 23.6929 17.9696 23.7064C18.1992 23.8212 18.4154 23.8753 18.6382 23.8753C19.1988 23.8753 19.55 23.5241 19.6648 23.4093L21.9746 21.0995C22.2042 20.8698 22.569 20.5929 22.9944 20.5929C23.4132 20.5929 23.7576 20.8563 23.967 21.0859C23.9737 21.0927 23.9737 21.0927 23.9805 21.0995L27.7019 24.8208C28.3975 25.5097 28.3975 26.2189 27.7086 26.9348Z"/><path d="M17.294 7.61195C19.0635 7.90911 20.6709 8.74659 21.9541 10.0298C23.2373 11.313 24.068 12.9204 24.372 14.6899C24.4463 15.1357 24.8312 15.4464 25.2702 15.4464C25.3243 15.4464 25.3715 15.4396 25.4256 15.4329C25.9254 15.3518 26.2563 14.8791 26.1752 14.3793C25.8105 12.2383 24.7975 10.2865 23.2508 8.73983C21.7042 7.19321 19.7524 6.18014 17.6114 5.81543C17.1116 5.73438 16.6456 6.06532 16.5578 6.55835C16.47 7.05138 16.7942 7.5309 17.294 7.61195Z"/><path d="M31.9628 14.1159C31.3617 10.5904 29.7002 7.38232 27.1473 4.82937C24.5944 2.27643 21.3863 0.61499 17.8608 0.0139004C17.3678 -0.0738993 16.9018 0.263792 16.814 0.756821C16.7329 1.2566 17.0638 1.72262 17.5636 1.81042C20.7109 2.34397 23.5813 3.83656 25.8641 6.1126C28.1469 8.39539 29.6327 11.2658 30.1663 14.413C30.2406 14.8588 30.6255 15.1695 31.0645 15.1695C31.1185 15.1695 31.1658 15.1627 31.2199 15.156C31.7129 15.0817 32.0506 14.6089 31.9628 14.1159Z"/></g><defs><clipPath id="clip0"><path fill="#fff" d="M0 0H32V32H0z"/></clipPath></defs></svg>