<svg width="16" height="16" viewBox="0 0 16 16" fill="none" xmlns="http://www.w3.org/2000/svg"><path d="M12.6456 9.91174C12.3181 9.57067 11.923 9.38832 11.5042 9.38832C11.0889 9.38832 10.6904 9.56729 10.3493 9.90836L9.28221 10.9721C9.19441 10.9248 9.10661 10.8809 9.02219 10.837C8.90062 10.7762 8.78581 10.7188 8.68788 10.658C7.68831 10.0232 6.77992 9.19583 5.90868 8.12535C5.48657 7.5918 5.20291 7.14267 4.99691 6.68679C5.27382 6.43352 5.53047 6.17012 5.78036 5.91685C5.87491 5.8223 5.96946 5.72437 6.06402 5.62982C6.77317 4.92066 6.77317 4.00215 6.06402 3.29299L5.14212 2.3711C5.03744 2.26641 4.92938 2.15835 4.82807 2.05029C4.62545 1.84092 4.41271 1.6248 4.19321 1.42219C3.86565 1.098 3.47393 0.925781 3.06194 0.925781C2.64996 0.925781 2.25149 1.098 1.91379 1.42219C1.91042 1.42556 1.91042 1.42556 1.90704 1.42894L0.758892 2.58722C0.326647 3.01946 0.0801331 3.54626 0.0261025 4.15748C-0.0549433 5.14354 0.235471 6.06206 0.458347 6.66315C1.00541 8.13886 1.82262 9.50651 3.04168 10.9721C4.52077 12.7382 6.3004 14.1329 8.3333 15.1156C9.10999 15.4836 10.1467 15.9193 11.305 15.9935C11.3759 15.9969 11.4502 16.0003 11.5177 16.0003C12.2978 16.0003 12.9529 15.72 13.4662 15.1628C13.4696 15.1561 13.4763 15.1527 13.4797 15.1459C13.6553 14.9332 13.8579 14.7407 14.0707 14.5347C14.2159 14.3963 14.3645 14.2511 14.5097 14.0991C14.844 13.7513 15.0196 13.3461 15.0196 12.9307C15.0196 12.512 14.8406 12.1101 14.4995 11.7724L12.6456 9.91174ZM13.8545 13.4676C13.8512 13.4676 13.8512 13.471 13.8545 13.4676C13.7228 13.6095 13.5878 13.7378 13.4426 13.8796C13.2231 14.089 13.0002 14.3085 12.7908 14.555C12.4498 14.9197 12.0479 15.0919 11.5211 15.0919C11.4704 15.0919 11.4164 15.0919 11.3658 15.0885C10.3628 15.0244 9.4308 14.6327 8.73178 14.2983C6.82045 13.3731 5.14212 12.0595 3.74746 10.3946C2.59593 9.00672 1.826 7.7235 1.31608 6.34572C1.00203 5.50487 0.887214 4.84975 0.937868 4.23178C0.971637 3.83668 1.1236 3.50912 1.40388 3.22883L2.55541 2.07731C2.72088 1.92197 2.89648 1.83755 3.0687 1.83755C3.28144 1.83755 3.45367 1.96587 3.56173 2.07393C3.5651 2.07731 3.56848 2.08068 3.57186 2.08406C3.77785 2.27654 3.97371 2.47578 4.1797 2.68853C4.28439 2.79659 4.39245 2.90465 4.50051 3.01609L5.4224 3.93798C5.78036 4.29594 5.78036 4.62687 5.4224 4.98483C5.32447 5.08276 5.22992 5.18069 5.13199 5.27524C4.84833 5.56565 4.57818 5.83581 4.28439 6.09921C4.27763 6.10596 4.27088 6.10934 4.2675 6.11609C3.97709 6.4065 4.03112 6.69016 4.0919 6.88265C4.09528 6.89278 4.09866 6.90291 4.10203 6.91304C4.34179 7.49387 4.67948 8.04093 5.19277 8.69267L5.19615 8.69605C6.12818 9.8442 7.11086 10.7391 8.19485 11.4246C8.3333 11.5124 8.47513 11.5833 8.61021 11.6508C8.73178 11.7116 8.84659 11.769 8.94452 11.8298C8.95803 11.8366 8.97154 11.8467 8.98504 11.8535C9.09986 11.9109 9.20792 11.9379 9.31936 11.9379C9.59964 11.9379 9.77524 11.7623 9.83265 11.7049L10.9876 10.55C11.1024 10.4352 11.2847 10.2967 11.4975 10.2967C11.7068 10.2967 11.8791 10.4284 11.9837 10.5432C11.9871 10.5466 11.9871 10.5466 11.9905 10.55L13.8512 12.4106C14.199 12.7551 14.199 13.1097 13.8545 13.4676Z" fill="#74953D"/><path d="M8.64747 3.8067C9.53222 3.95529 10.3359 4.37403 10.9775 5.01564C11.6192 5.65725 12.0345 6.46096 12.1865 7.34571C12.2236 7.56858 12.4161 7.72392 12.6356 7.72392C12.6626 7.72392 12.6863 7.72054 12.7133 7.71717C12.9632 7.67664 13.1286 7.44026 13.0881 7.19037C12.9058 6.11989 12.3992 5.14396 11.6259 4.37065C10.8526 3.59734 9.87666 3.0908 8.80618 2.90845C8.55629 2.86792 8.32328 3.03339 8.27938 3.27991C8.23548 3.52642 8.39758 3.76618 8.64747 3.8067Z" fill="#74953D"/><path d="M15.9816 7.05794C15.6811 5.29519 14.8504 3.69116 13.5739 2.41469C12.2974 1.13821 10.6934 0.307495 8.93064 0.00695018C8.68413 -0.0369496 8.45112 0.131896 8.40722 0.37841C8.3667 0.628302 8.53217 0.861308 8.78206 0.905208C10.3557 1.17198 11.7909 1.91828 12.9323 3.0563C14.0737 4.19769 14.8166 5.63288 15.0834 7.20652C15.1205 7.4294 15.313 7.58473 15.5325 7.58473C15.5595 7.58473 15.5832 7.58136 15.6102 7.57798C15.8567 7.54084 16.0255 7.30445 15.9816 7.05794Z" fill="#74953D"/></svg>