<svg width="48" height="48" viewBox="0 0 48 48" fill="none" xmlns="http://www.w3.org/2000/svg"><path d="M43.5442 6.48218C43.3195 6.37329 43.0567 6.37559 42.8338 6.48857L39.3862 8.23719L36.6881 3.60249C35.7645 1.87138 33.9586 0.793693 31.9966 0.802792H18.6636C16.6729 0.807591 14.8288 1.84988 13.7978 3.55289L11.318 7.58286C11.0889 7.95522 11.201 8.44256 11.57 8.67714L20.369 14.2765C20.4972 14.358 20.6459 14.4012 20.7978 14.4013C20.8642 14.4014 20.9303 14.393 20.9946 14.3765C21.2081 14.3224 21.3898 14.1826 21.4969 13.9902L24.8566 7.94522L28.5362 14.9045L25.1861 16.9146C24.892 17.091 24.743 17.4354 24.8158 17.7706C24.8883 18.1056 25.1662 18.3572 25.5069 18.3961L37.412 19.7495C37.442 19.7527 37.4722 19.7543 37.5024 19.7543C37.809 19.7543 38.0886 19.5792 38.2223 19.3032L43.9153 7.55086C44.1079 7.1532 43.9418 6.67476 43.5442 6.48218ZM20.5106 12.4702L13.093 7.75074L15.1648 4.3847C15.9048 3.15814 17.2312 2.40672 18.6636 2.40252H21.9113L23.8935 6.38209L20.5106 12.4702ZM37.0296 18.096L28.0322 17.0729L30.0088 15.8867C30.3727 15.6679 30.5023 15.203 30.304 14.8276L23.7343 2.40252H31.9966C33.3859 2.40052 34.6611 3.17123 35.305 4.4023L38.3831 9.69213C38.5968 10.0577 39.0582 10.1934 39.4358 10.0017L41.4404 8.9858L37.0296 18.096Z" fill="#fff" stroke="#fff"/><path d="M47.301 23.2035L44.7157 18.0393C44.5183 17.644 44.0378 17.4837 43.6426 17.6811C43.6267 17.689 43.6111 17.6975 43.5958 17.7065L33.9968 23.3059C33.6207 23.5253 33.4892 24.0052 33.7009 24.3858L37.0381 30.3995H29.5989V27.1999C29.5991 26.7581 29.241 26.3998 28.7993 26.3996C28.5738 26.3995 28.3587 26.4946 28.2071 26.6615L20.2079 35.4606C19.9473 35.7474 19.9298 36.1799 20.1663 36.4869L28.1655 46.8857C28.4351 47.2356 28.9375 47.3006 29.2873 47.0309C29.4837 46.8795 29.5988 46.6458 29.5989 46.3978V43.998H35.1983C37.1707 44.0466 38.9956 42.9575 39.889 41.1983L45.4884 31.6042L47.1522 28.9165C48.2284 27.1784 48.2853 24.9953 47.301 23.2035ZM38.4979 40.4112C37.8816 41.6621 36.5922 42.4385 35.1983 42.3982H28.799C28.3572 42.3982 27.9991 42.7564 27.9991 43.1981V44.046L21.8397 36.0421L27.9991 29.2684V31.1994C27.9991 31.6412 28.3572 31.9993 28.799 31.9993H43.4046L38.4979 40.4112ZM45.7883 28.0782L44.3485 30.3979H38.8683L35.4783 24.297L43.6638 19.5207L45.8835 23.9522C46.6 25.2436 46.5636 26.8212 45.7883 28.0782Z" fill="#fff" stroke="#fff"/><path d="M19.1252 24.465L14.3257 14.0661C14.1877 13.7655 13.8791 13.5808 13.549 13.6014L0.750385 14.4013C0.309433 14.4287 -0.0258306 14.8082 0.00156641 15.2492C0.0176647 15.5079 0.158049 15.7429 0.378426 15.8795L0.379226 15.8811L4.334 18.3336L1.69428 23.6195C0.737487 25.3578 0.742986 27.4663 1.70868 29.1997L6.1602 36.8868L8.59434 41.1032C9.63972 42.879 11.5388 43.9775 13.5994 43.9981H16.799C17.2408 43.9981 17.599 43.6399 17.599 43.1981V31.9994C17.599 31.5576 17.2408 31.1994 16.799 31.1994H10.8229L14.8129 24.2762L18.1117 25.5465C18.5241 25.7049 18.9869 25.4992 19.1454 25.0868C19.2229 24.8853 19.2156 24.6611 19.1252 24.465ZM15.9991 32.7993V42.3982H13.5994C12.1088 42.3838 10.7346 41.5894 9.97819 40.3049L7.78242 36.5005L10.0478 32.7993H15.9991ZM14.7489 22.5372C14.3813 22.396 13.9657 22.5432 13.769 22.8843L6.84973 34.8894L3.09333 28.3998C2.40281 27.1381 2.41311 25.6093 3.12053 24.357L6.09541 18.3944C6.28169 18.0239 6.1539 17.5724 5.80104 17.3545L3.3541 15.8411L13.1026 15.234L16.8462 23.3451L14.7489 22.5372Z" fill="#fff" stroke="#fff"/></svg>