<svg width="48" height="48" viewBox="0 0 48 48" fill="none" xmlns="http://www.w3.org/2000/svg"><path d="M46.4561 15.3307C47.9824 7.69958 48 1.65967 48 1.40625C48 1.03345 47.8521 0.675659 47.588 0.411987C47.3243 0.148315 46.9669 0 46.5938 0C46.3403 0 40.3004 0.0175781 32.6693 1.54395C29.9506 2.0874 27.3746 2.75684 24.9635 3.54199C24.947 3.54675 24.9313 3.55225 24.9152 3.55774C23.3544 4.0675 21.8624 4.62598 20.4485 5.23169C18.7192 5.9729 17.1028 6.78625 15.6042 7.66772C15.5588 7.69189 15.5145 7.71826 15.472 7.74719C13.0679 9.17432 10.9691 10.778 9.20325 12.5438C5.69678 16.0503 3.76575 20.7118 3.76575 25.6703C3.76575 30.1571 5.34705 34.4008 8.24561 37.7655L0.411987 45.5995C-0.137329 46.1488 -0.137329 47.0391 0.411987 47.588C0.686646 47.8627 1.04626 48 1.40625 48C1.76624 48 2.12622 47.8627 2.40051 47.588L10.2345 39.7544C13.5989 42.6526 17.8425 44.2339 22.3293 44.2339C27.2882 44.2339 31.9497 42.3032 35.4562 38.7971C37.2224 37.0309 38.8257 34.9318 40.2528 32.5276C40.2817 32.4851 40.3081 32.4408 40.3323 32.3954C41.2137 30.8965 42.0271 29.2804 42.7679 27.5515C43.3748 26.1357 43.9336 24.6423 44.4441 23.0797C44.4485 23.0665 44.4529 23.053 44.4569 23.0398C45.2424 20.6276 45.9122 18.0505 46.4561 15.3307ZM33.1666 4.3125C38.3917 3.26367 42.9287 2.948 45.1469 2.85315C45.052 5.07166 44.7363 9.60864 43.6875 14.8334C43.2935 16.7963 42.7679 18.9774 42.0732 21.2311L28.7571 21.2314L36.9375 13.0514C37.4865 12.5021 37.4865 11.6115 36.9375 11.0625C36.3882 10.5132 35.4979 10.5132 34.9486 11.0625L26.7689 19.2426V5.92676C29.0226 5.23206 31.2037 4.70654 33.1666 4.3125ZM38.2668 30.3303H19.6582L25.9446 24.0439L41.1251 24.0436C40.344 26.1665 39.4025 28.3008 38.2668 30.3303ZM23.9564 6.87488V22.0547L17.6697 28.3411L17.6693 9.73315C19.6992 8.59753 21.8331 7.65601 23.9564 6.87488ZM6.57825 25.6703C6.57825 21.4633 8.21667 17.5078 11.1918 14.5327C12.3127 13.4117 13.5472 12.4003 14.8568 11.4877L14.8575 31.1536L10.2418 35.7697C7.87024 32.9414 6.57825 29.4053 6.57825 25.6703ZM33.4677 36.8086C30.4926 39.7833 26.5367 41.4214 22.3293 41.4214C18.5947 41.4214 15.0586 40.1294 12.2303 37.7582L16.8457 33.1428H36.5127C35.6001 34.4528 34.5886 35.6873 33.4677 36.8086Z" fill="#fff"/></svg>