<svg width="48" height="48" viewBox="0 0 48 48" fill="none" xmlns="http://www.w3.org/2000/svg"><path d="M28.5938 24C28.5938 26.5371 26.5371 28.5938 24 28.5938C21.4629 28.5938 19.4062 26.5371 19.4062 24C19.4062 21.4629 21.4629 19.4062 24 19.4062C26.5371 19.4062 28.5938 21.4629 28.5938 24Z" fill="#74953D" fill-opacity=".5"/><path d="M34.7422 15.8719C34.5214 15.2736 34.1691 14.7319 33.7113 14.2874C33.2667 13.8296 32.7255 13.4773 32.1267 13.2565C31.6411 13.0679 30.9116 12.8434 29.568 12.7822C28.1145 12.7159 27.6787 12.7017 23.999 12.7017C20.319 12.7017 19.8832 12.7156 18.4301 12.7819C17.0864 12.8434 16.3566 13.0679 15.8713 13.2565C15.2726 13.4773 14.731 13.8296 14.2867 14.2874C13.829 14.7319 13.4767 15.2732 13.2555 15.8719C13.0669 16.3575 12.8424 17.0874 12.7812 18.431C12.715 19.8842 12.7007 20.3199 12.7007 24C12.7007 27.6797 12.715 28.1155 12.7812 29.569C12.8424 30.9126 13.0669 31.6421 13.2555 32.1277C13.4767 32.7264 13.8286 33.2677 14.2864 33.7123C14.731 34.17 15.2722 34.5223 15.871 34.7432C16.3566 34.9321 17.0864 35.1566 18.4301 35.2178C19.8832 35.284 20.3186 35.298 23.9987 35.298C27.6791 35.298 28.1149 35.284 29.5676 35.2178C30.9113 35.1566 31.6411 34.9321 32.1267 34.7432C33.3286 34.2795 34.2786 33.3296 34.7422 32.1277C34.9308 31.6421 35.1553 30.9126 35.2168 29.569C35.2831 28.1155 35.297 27.6797 35.297 24C35.297 20.3199 35.2831 19.8842 35.2168 18.431C35.1556 17.0874 34.9311 16.3575 34.7422 15.8719ZM23.999 31.0763C20.0905 31.0763 16.922 27.9082 16.922 23.9996C16.922 20.0911 20.0905 16.923 23.999 16.923C27.9072 16.923 31.0757 20.0911 31.0757 23.9996C31.0757 27.9082 27.9072 31.0763 23.999 31.0763ZM31.3555 18.297C30.4421 18.297 29.7017 17.5565 29.7017 16.6432C29.7017 15.7299 30.4421 14.9894 31.3555 14.9894C32.2688 14.9894 33.0093 15.7299 33.0093 16.6432C33.0089 17.5565 32.2688 18.297 31.3555 18.297Z" fill="#74953D" fill-opacity=".5"/><path d="M24 0C10.7472 0 0 10.7472 0 24C0 37.2528 10.7472 48 24 48C37.2528 48 48 37.2528 48 24C48 10.7472 37.2528 0 24 0ZM37.6981 29.6818C37.6315 31.1488 37.3982 32.1504 37.0576 33.0271C36.3417 34.8783 34.8783 36.3417 33.0271 37.0576C32.1508 37.3982 31.1488 37.6311 29.6821 37.6981C28.2125 37.7651 27.743 37.7812 24.0004 37.7812C20.2573 37.7812 19.7882 37.7651 18.3182 37.6981C16.8516 37.6311 15.8496 37.3982 14.9733 37.0576C14.0533 36.7115 13.2206 36.1692 12.5321 35.4679C11.8312 34.7798 11.2888 33.9467 10.9427 33.0271C10.6022 32.1508 10.3689 31.1488 10.3022 29.6821C10.2345 28.2122 10.2188 27.7427 10.2188 24C10.2188 20.2573 10.2345 19.7878 10.3019 18.3182C10.3685 16.8512 10.6014 15.8496 10.942 14.9729C11.2881 14.0533 11.8308 13.2202 12.5321 12.5321C13.2202 11.8308 14.0533 11.2885 14.9729 10.9424C15.8496 10.6018 16.8512 10.3689 18.3182 10.3019C19.7878 10.2349 20.2573 10.2188 24 10.2188C27.7427 10.2188 28.2122 10.2349 29.6818 10.3022C31.1488 10.3689 32.1504 10.6018 33.0271 10.942C33.9467 11.2881 34.7798 11.8308 35.4683 12.5321C36.1692 13.2206 36.7119 14.0533 37.0576 14.9729C37.3986 15.8496 37.6315 16.8512 37.6985 18.3182C37.7655 19.7878 37.7812 20.2573 37.7812 24C37.7812 27.7427 37.7655 28.2122 37.6981 29.6818Z" fill="#74953D" fill-opacity=".5"/></svg>