<svg width="14" height="14" viewBox="0 0 14 14" fill="none" xmlns="http://www.w3.org/2000/svg"><g clip-path="url(#clip0)" fill="#41531C"><path d="M13.3626 -0.000488281H8.27164C7.92019 -0.000488281 7.63527 0.284434 7.63527 0.635883C7.63527 0.987332 7.92019 1.27225 8.27164 1.27225H11.8262L5.27624 7.82229C5.02771 8.07081 5.02771 8.4737 5.27624 8.72222C5.40046 8.84647 5.56332 8.9086 5.72618 8.9086C5.88904 8.9086 6.05193 8.8465 6.17618 8.7222L12.7262 2.17219V5.7268C12.7262 6.07825 13.0111 6.36317 13.3626 6.36317C13.714 6.36317 13.9989 6.07825 13.9989 5.7268V0.635883C13.9989 0.284434 13.714 -0.000488281 13.3626 -0.000488281Z"/><path d="M10.8182 6.36334C10.4667 6.36334 10.1818 6.64826 10.1818 6.99971V12.727H1.27271V3.81788H7C7.35145 3.81788 7.63637 3.53296 7.63637 3.18151C7.63637 2.83006 7.35145 2.54517 7 2.54517H0.636371C0.284922 2.54517 0 2.83009 0 3.18154V13.3634C0 13.7148 0.284922 13.9997 0.636371 13.9997H10.8182C11.1696 13.9997 11.4546 13.7148 11.4546 13.3633V6.99971C11.4545 6.64826 11.1696 6.36334 10.8182 6.36334Z"/></g><defs><clipPath id="clip0"><path fill="#fff" d="M0 0H14V14H0z"/></clipPath></defs></svg>