<svg width="23" height="45" viewBox="0 0 23 45" fill="none" xmlns="http://www.w3.org/2000/svg"><path fill-rule="evenodd" clip-rule="evenodd" d="M7.84491 0H10.8731H13.7725V4.05579H14.9323V10.2361C14.9323 11.5751 15.2759 12.2103 15.4477 12.3605C21.3109 17.382 23.8881 24.0773 22.7283 33.6051C21.8006 41.2275 18.8625 44.3777 17.5095 45H7.99912C7.99921 44.9045 7.97202 44.808 7.9151 44.7226C7.42746 43.9912 6.66433 42.7117 5.97507 41.2716C5.28235 39.8244 4.68326 38.2538 4.49404 36.9293C4.257 35.27 4.49141 33.7161 4.86026 32.1792C4.98811 31.6465 5.13611 31.1035 5.28513 30.5566C5.55552 29.5645 5.82931 28.56 5.99227 27.5822C6.03766 27.3098 5.85365 27.0522 5.58127 27.0068C5.30888 26.9614 5.05127 27.1454 5.00587 27.4178C4.84995 28.3533 4.60121 29.2632 4.34086 30.2155C4.18841 30.7732 4.03198 31.3454 3.88788 31.9458C3.50673 33.5339 3.24114 35.23 3.5041 37.0707C3.71489 38.5462 4.36579 40.2256 5.07307 41.7034C5.70451 43.0226 6.39602 44.2121 6.90176 45H4.17238C-0.724337 39.8498 -0.402184 34.6996 0.628703 31.3519C1.65959 28.0043 2.1106 25.3004 1.59515 22.7897C1.51065 22.3781 1.42095 21.9959 1.33542 21.6314C0.899274 19.773 0.571673 18.3772 1.59515 15.9013C2.64025 13.3731 4.38973 12.8156 5.36028 12.5063C5.52659 12.4533 5.67003 12.4076 5.78313 12.3605C6.40167 12.103 6.64221 11.4378 6.68516 11.1373V4.05579H7.84491V0ZM18.686 21.4512C18.3126 20.8453 17.4468 19.7036 16.2454 20.0715C14.7436 20.5314 14.8688 23.6192 15.2442 27.4297C15.6197 31.2402 16.6213 33.6054 17.5596 33.9338C18.498 34.2623 20 33.474 20 29.1379C20 24.8018 19.3743 22.568 18.686 21.4512Z" fill="#AC7EC1" opacity=".5"/></svg>