<svg width="21" height="45" viewBox="0 0 21 45" fill="none" xmlns="http://www.w3.org/2000/svg"><path fill-rule="evenodd" clip-rule="evenodd" d="M10.8866 0H7.69973V1.13924H8.36194V2.35986H7.28584V7.32369C5.6993 7.45931 2.30271 8.49548 1.40872 11.5552C0.857892 13.4404 1.37301 14.9203 1.90817 16.4578C2.45872 18.0395 3.03048 19.6821 2.48481 21.8897C2.26942 22.7611 1.9396 23.5494 1.58996 24.385C0.192814 27.7243 -1.52087 31.82 2.48481 45H5.82104C4.93455 42.1394 3.38423 36.9381 3.00553 33.5556C2.68783 30.718 3.19009 29.0809 3.71761 27.3615L3.71761 27.3614C3.76892 27.1942 3.82047 27.0262 3.87153 26.8562C3.95097 26.5917 4.22976 26.4417 4.49423 26.5211C4.7587 26.6006 4.9087 26.8794 4.82926 27.1438C4.77749 27.3162 4.72576 27.485 4.67471 27.6516L4.67466 27.6518C4.15476 29.3486 3.70507 30.8162 3.99932 33.4444C4.37932 36.8385 5.99652 42.199 6.86818 45H18.3366C19.3023 42.396 21.1841 36.1302 20.9854 31.8987C20.8715 29.4728 20.2091 27.4234 19.6012 25.5425C18.8836 23.3226 18.242 21.3375 18.6677 19.245C18.7609 18.7868 18.8786 18.3004 19.0008 17.7955C19.909 14.0419 21.066 9.2603 14.2805 7.32369V2.35986L13.1217 0H10.8866Z" fill="#77CB99" opacity=".5"/></svg>