<svg width="21" height="45" viewBox="0 0 21 45" fill="none" xmlns="http://www.w3.org/2000/svg"><path fill-rule="evenodd" clip-rule="evenodd" d="M1.95855 0.580054L11.4768 0H13.4364L16.0493 1.40434L15.0539 2.01493H12.1611V2.83921H11.7256V3.60244H13.1565V4.82361H14.7118V10.96C15.7797 11.1635 18.152 11.8514 19.0976 12.9749C20.2796 14.3792 20.6218 15.8141 19.5642 19.1723C18.5066 22.5305 18.2267 25.0034 19.5642 28.6364C20.9017 32.2693 21.1817 33.1242 20.9017 37.3982C20.6778 40.8175 20.1448 43.8908 19.9064 45H5.89241C5.57122 43.6599 5.15314 41.6414 4.84475 39.5278C4.50418 37.1937 4.30436 34.7883 4.49693 33.0552C4.63253 31.8348 4.92102 30.8816 5.24083 29.9707C5.31005 29.7735 5.38165 29.5761 5.45385 29.377C5.71182 28.6658 5.9775 27.9333 6.16997 27.1144C6.23316 26.8456 6.06646 26.5765 5.79764 26.5133C5.52883 26.4501 5.25969 26.6168 5.1965 26.8856C5.01873 27.6419 4.77906 28.3033 4.52468 29.0052C4.44976 29.2119 4.37356 29.4222 4.29729 29.6394C3.96535 30.5849 3.65045 31.6182 3.50304 32.9448C3.29561 34.8117 3.51246 37.323 3.85522 39.6722C4.15099 41.6992 4.5457 43.639 4.86471 45H1.74081C1.29497 43.728 0.353509 40.4267 0.154434 37.3982C-0.0944089 33.6126 -0.21883 31.5977 1.21202 28.6364C2.64287 25.675 2.79827 22.1642 1.74081 19.1723C0.683347 16.1805 -0.187604 11.9674 6.09568 10.96V4.82361H7.3399V3.60244H8.55301V2.83921H8.11753V2.01493L2.92293 1.6791L1.95855 0.580054Z" fill="#F9C981"/></svg>