<svg width="17" height="45" viewBox="0 0 17 45" fill="none" xmlns="http://www.w3.org/2000/svg"><path fill-rule="evenodd" clip-rule="evenodd" d="M9.96318 0H1.80517L0.240629 0.584036V3.12459L1.80517 3.53342V5.46074L0.240629 9.40298H0.799398L4.01231 5.02271L6.10769 5.46074L6.49882 6.24919H5.8283V9.40298C5.48373 9.58793 4.83369 10.2206 4.99015 11.2719C5.00101 11.3449 5.01282 11.423 5.02541 11.5063C5.23958 12.923 5.68085 15.8418 5.54892 20.5581C5.44323 24.336 3.96229 27.111 2.61839 29.6292C2.18596 30.4395 1.76771 31.2232 1.41404 32.0052C-0.0387592 35.2174 -0.960726 38.7508 1.66548 45H4.63076C3.60922 43.0187 2.43767 39.1825 3.5136 34.8788C3.96699 33.0652 4.59832 31.6536 5.24099 30.3715C5.41175 30.0309 5.58145 29.7027 5.74816 29.3802L5.74826 29.3801C6.21472 28.4779 6.65775 27.621 7.03484 26.6644C7.13611 26.4075 7.42647 26.2813 7.68337 26.3826C7.94027 26.4839 8.06643 26.7742 7.96516 27.0311C7.56781 28.0391 7.09141 28.9604 6.61795 29.876C6.4555 30.1901 6.2934 30.5036 6.13496 30.8197C5.50885 32.0687 4.9123 33.4071 4.48374 35.1213C3.38109 39.5319 4.82184 43.4193 5.77387 45H15.9698C15.9698 45 17.9032 34.3589 16.4727 28.7054C15.0423 23.0519 12.3006 13.7541 11.1086 9.81181V6.24919H10.6057L11.1086 5.46074L14.6009 4.23426L14.7406 3.32901C14.4333 2.39455 13.0476 0.420506 9.96318 0Z" fill="url(#paint0_linear)"/><defs><linearGradient id="paint0_linear" x1="8.5" y1="0" x2="8.5" y2="45" gradientUnits="userSpaceOnUse"><stop stop-color="#E9AD90"/><stop offset="1" stop-color="#DC7E60"/></linearGradient></defs></svg>