<svg width="43" height="45" viewBox="0 0 43 45" fill="none" xmlns="http://www.w3.org/2000/svg"><path fill-rule="evenodd" clip-rule="evenodd" d="M10.0714 17.3229C9.95942 17.9065 9.911 18.4654 9.91625 19.017C9.92687 20.1319 10.1621 21.133 10.3679 22.0091L10.3866 22.0884C10.4728 22.4557 10.5562 22.8117 10.6342 23.1919C11.046 25.1973 10.7193 27.5038 9.71552 30.7633C8.62389 34.3082 8.26038 39.6452 12.5198 45H4.2192C3.99785 44.0814 3.70594 42.6781 3.49142 41.2078C3.25715 39.6022 3.12215 37.9616 3.25249 36.7885C3.34407 35.9643 3.53869 35.3201 3.75712 34.698C3.80376 34.5651 3.85238 34.4311 3.90168 34.2952C4.07985 33.8041 4.26696 33.2883 4.40185 32.7144C4.46504 32.4456 4.29834 32.1765 4.02952 32.1133C3.76071 32.0501 3.49157 32.2168 3.42838 32.4856C3.30819 32.997 3.14708 33.4416 2.97251 33.9233C2.92049 34.0669 2.86727 34.2138 2.81358 34.3667C2.58302 35.0234 2.36198 35.7477 2.2586 36.6781C2.11339 37.9851 2.26543 39.7315 2.5019 41.3522C2.70377 42.7358 2.97228 44.0604 3.1915 45H1.19922C0.892087 44.1237 0.243528 41.8495 0.106388 39.7632C-0.0650372 37.1554 -0.15075 35.7673 0.834945 33.7273C1.82064 31.6872 1.9277 29.2687 1.19922 27.2076C0.47075 25.1465 -0.129239 22.2442 4.19925 21.5502V17.3229H5.05638V16.4817H5.89207V15.9559H5.59208V15.3881L2.01358 15.1567L1.34922 14.3996L7.90624 14H9.25621L10.8631 14.8636C10.8229 14.9531 10.7835 15.0443 10.7451 15.1372C10.7412 15.1466 10.7373 15.156 10.7335 15.1654L10.3705 15.3881H8.37766V15.9559H8.07766V16.4817H9.06336V17.3229H10.0714Z" fill="#74953D"/><path fill-rule="evenodd" clip-rule="evenodd" d="M30.8774 14.0228C30.6523 13.748 30.4199 13.4772 30.1802 13.2103L30.4866 12.4382V10.851L29.1982 10.5144V8.42213L30.4866 7.94116H37.205C39.7451 8.28746 40.8862 9.91314 41.1393 10.6827L41.0243 11.4282L38.1482 12.4382L37.7341 13.0876H38.1482V16.0215C39.1299 19.268 41.3878 26.9251 42.5658 31.5809C43.7438 36.2367 42.1517 45 42.1517 45H31.8589C31.8214 44.9392 31.7829 44.8738 31.7436 44.804C32.1855 44.2614 32.6165 43.6272 33.0211 42.9058C34.1879 40.8252 35.2218 37.8738 35.7119 33.8468C36.5125 27.2701 35.6235 21.84 33.1253 17.3284L33.1096 17.2239C32.9807 16.3582 33.516 15.8371 33.7998 15.6848V13.0876H34.352L34.0299 12.4382L32.3043 12.0775L30.8774 14.0228Z" fill="#74953D"/><path fill-rule="evenodd" clip-rule="evenodd" d="M18.8566 0H24.7842V4.05579H25.944V10.2361C25.944 11.5751 26.2876 12.2103 26.4594 12.3605C32.3226 17.382 34.8998 24.0773 33.7401 33.6051C32.8123 41.2275 29.8742 44.3777 28.5212 45H19.0108C19.0109 44.9045 18.9837 44.808 18.9268 44.7226C18.4392 43.9912 17.676 42.7117 16.9868 41.2716C16.2941 39.8244 15.695 38.2538 15.5058 36.9293C15.2687 35.27 15.5031 33.7161 15.872 32.1792C15.9998 31.6465 16.1478 31.1035 16.2969 30.5566C16.5672 29.5645 16.841 28.56 17.004 27.5822C17.0494 27.3098 16.8654 27.0522 16.593 27.0068C16.3206 26.9614 16.063 27.1454 16.0176 27.4178C15.8617 28.3533 15.6129 29.2632 15.3526 30.2155C15.2001 30.7732 15.0437 31.3454 14.8996 31.9458C14.5185 33.5339 14.2529 35.23 14.5158 37.0707C14.7266 38.5462 15.3775 40.2256 16.0848 41.7034C16.7162 43.0226 17.4077 44.2121 17.9135 45H15.1841C10.2874 39.8498 10.6095 34.6996 11.6404 31.3519C12.6713 28.0043 13.1223 25.3004 12.6069 22.7897C12.5224 22.3781 12.4327 21.9959 12.3471 21.6314C11.911 19.773 11.5834 18.3772 12.6069 15.9013C13.652 13.3731 15.4014 12.8156 16.372 12.5063C16.5383 12.4533 16.6817 12.4076 16.7949 12.3605C17.4134 12.103 17.6539 11.4378 17.6969 11.1373V4.05579H18.8566V0ZM29.6977 21.4512C29.3243 20.8453 28.4585 19.7036 27.2571 20.0715C25.7553 20.5314 25.8805 23.6192 26.2559 27.4297C26.6314 31.2402 27.633 33.6054 28.5714 33.9338C29.5097 34.2623 31.0117 33.474 31.0117 29.1379C31.0117 24.8018 30.386 22.568 29.6977 21.4512Z" fill="#74953D"/></svg>