<svg width="40" height="40" viewBox="0 0 40 40" fill="none" xmlns="http://www.w3.org/2000/svg"><path d="M20 -0.000488281C12.2459 -0.000488281 5.9375 6.30795 5.9375 14.062C5.9375 16.6819 6.6632 19.2386 8.03664 21.4567L19.1995 39.4455C19.4134 39.7901 19.7901 39.9995 20.1952 39.9995C20.1984 39.9995 20.2014 39.9995 20.2045 39.9995C20.6132 39.9963 20.9907 39.7804 21.2006 39.4298L32.079 21.2667C33.3766 19.0954 34.0625 16.6041 34.0625 14.062C34.0625 6.30795 27.7541 -0.000488281 20 -0.000488281ZM30.0677 20.0634L20.1775 36.5765L10.0287 20.2219C8.88547 18.3756 8.26563 16.2456 8.26563 14.062C8.26563 7.60029 13.5383 2.32764 20 2.32764C26.4617 2.32764 31.7266 7.60029 31.7266 14.062C31.7266 16.1808 31.1476 18.2564 30.0677 20.0634Z" fill="#768703"/><path d="M20 7.03076C16.123 7.03076 12.9688 10.185 12.9688 14.062C12.9688 17.9143 16.0716 21.0933 20 21.0933C23.9768 21.0933 27.0312 17.8719 27.0312 14.062C27.0312 10.185 23.877 7.03076 20 7.03076ZM20 18.7651C17.4018 18.7651 15.2969 16.6532 15.2969 14.062C15.2969 11.4773 17.4153 9.35889 20 9.35889C22.5847 9.35889 24.6953 11.4773 24.6953 14.062C24.6953 16.6154 22.6394 18.7651 20 18.7651Z" fill="#768703"/></svg>