<svg width="26" height="26" viewBox="0 0 26 26" fill="none" xmlns="http://www.w3.org/2000/svg"><g clip-path="url(#clip0)" fill="#74953D"><path d="M12.9798 0C8.76274 0 5.33203 3.43071 5.33203 7.64774V18.3523C5.33203 22.5693 8.76274 26 12.9798 26C17.1968 26 20.6275 22.5693 20.6275 18.3523V7.64774C20.6275 3.43071 17.1968 0 12.9798 0ZM19.0676 18.3523C19.0676 21.709 16.3365 24.4401 12.9798 24.4401C9.62305 24.4401 6.89197 21.709 6.89197 18.3523V7.64774C6.89197 4.29102 9.62305 1.55994 12.9798 1.55994C16.3365 1.55994 19.0676 4.29102 19.0676 7.64774V18.3523Z"/><path d="M12.9802 5.17212C12.5493 5.17212 12.2002 5.52124 12.2002 5.95209V9.54208C12.2002 9.97273 12.5493 10.3221 12.9802 10.3221C13.4108 10.3221 13.7601 9.97273 13.7601 9.54208V5.95209C13.7601 5.52124 13.411 5.17212 12.9802 5.17212Z"/></g><defs><clipPath id="clip0"><path fill="#fff" d="M0 0H26V26H0z"/></clipPath></defs></svg>