<svg width="48" height="48" viewBox="0 0 48 48" fill="none" xmlns="http://www.w3.org/2000/svg"><path d="M0 24C0 37.2548 10.7452 48 24 48C37.2548 48 48 37.2548 48 24C48 10.7452 37.2548 0 24 0C10.7452 0 0 10.7452 0 24Z" fill="#74953D" fill-opacity=".5"/><path d="M15.0184 16.6747C15.9118 18.8903 17.044 20.9792 18.5352 22.8544C18.733 23.1039 18.9823 23.3258 19.2449 23.5064C19.6285 23.771 19.9905 23.678 20.1464 23.2373C20.3114 22.7749 20.4628 21.8376 20.4718 21.352C20.4964 20.0831 20.4681 19.2515 20.4003 17.9841C20.3562 17.1723 20.0689 16.4596 18.8799 16.2445C18.5128 16.1778 18.4787 15.8742 18.7146 15.5715C19.2056 14.9411 19.8898 14.8406 20.6317 14.8009C21.834 14.7357 23.0408 14.7889 24.2447 14.8009C24.735 14.8054 25.2283 14.8451 25.7112 14.9508C26.3411 15.0887 26.6785 15.5324 26.7823 16.15C26.836 16.4685 26.8636 16.796 26.8561 17.1184C26.8248 18.5035 26.7584 19.8878 26.7427 21.2722C26.736 21.8155 26.7755 22.3725 26.8912 22.9016C27.0532 23.6391 27.5532 23.8242 28.0645 23.2914C28.7138 22.6146 29.2862 21.8531 29.8235 21.0796C30.7998 19.6728 31.5289 18.1288 32.1566 16.5369C32.4812 15.7155 32.7298 15.537 33.6096 15.5348C35.2635 15.531 36.9174 15.5296 38.5713 15.5348C38.8646 15.5363 39.1713 15.5641 39.4482 15.6525C39.8975 15.7965 40.0759 16.1645 39.9706 16.6314C39.7251 17.7257 39.1362 18.6558 38.5056 19.55C37.4936 20.9846 36.433 22.3847 35.3972 23.8027C35.2651 23.9834 35.1487 24.176 35.0404 24.3716C34.653 25.0746 34.6799 25.4688 35.2449 26.0542C36.1442 26.9858 37.107 27.8575 37.9779 28.8146C38.6109 29.5109 39.1967 30.2664 39.6982 31.0616C40.3326 32.0674 39.9408 33.0148 38.7556 33.1834C38.0101 33.2891 34.3681 33.1842 34.1799 33.1834C33.2007 33.179 32.3425 32.8379 31.6513 32.1701C30.8826 31.4266 30.184 30.6111 29.4459 29.8354C29.2235 29.6015 28.9861 29.3774 28.7302 29.1818C28.1264 28.7193 27.5338 28.822 27.2517 29.5341C27.0106 30.1457 26.8024 31.7518 26.7926 31.889C26.7419 32.6063 26.2874 33.0635 25.4873 33.1077C23.1774 33.2336 20.9391 32.975 18.8539 31.853C17.0866 30.9026 15.6753 29.5588 14.4528 27.9916C12.5109 25.5023 10.977 22.7661 9.57657 19.9495C9.505 19.8055 8.0866 16.7744 8.04849 16.6313C7.92179 16.1519 8.03998 15.6939 8.44331 15.5363C8.69474 15.4381 13.3713 15.536 13.449 15.5402C14.1953 15.5807 14.7041 15.8969 15.0184 16.6747Z" fill="#fff"/></svg>