<svg width="48" height="48" viewBox="0 0 48 48" fill="none" xmlns="http://www.w3.org/2000/svg"><path d="M0 24C0 37.2548 10.7452 48 24 48C37.2548 48 48 37.2548 48 24C48 10.7452 37.2548 0 24 0C10.7452 0 0 10.7452 0 24Z" fill="#74953D" fill-opacity=".5"/><path d="M27.3668 30.0745C27.3659 29.9128 27.3183 29.7444 27.2584 29.5932C27.1785 29.3944 27.0073 29.2955 26.7924 29.2746C26.5403 29.2499 26.3387 29.3516 26.1561 29.5133C26.0829 29.577 26.0496 29.6721 26.0496 29.6721L26.0534 34.8052V34.9316C26.0534 34.9316 26.0971 34.9906 26.1038 34.9982C26.2522 35.159 26.4253 35.2864 26.6469 35.3321C27.0121 35.4072 27.2698 35.255 27.3411 34.9164C27.3592 34.8318 27.3697 34.7443 27.3697 34.6577C27.3716 33.1293 27.3744 31.6019 27.3668 30.0745ZM27.3668 30.0745C27.3659 29.9128 27.3183 29.7444 27.2584 29.5932C27.1785 29.3944 27.0073 29.2955 26.7924 29.2746C26.5403 29.2499 26.3387 29.3516 26.1561 29.5133C26.0829 29.577 26.0496 29.6721 26.0496 29.6721L26.0534 34.8052V34.9316C26.0534 34.9316 26.0971 34.9906 26.1038 34.9982C26.2522 35.159 26.4253 35.2864 26.6469 35.3321C27.0121 35.4072 27.2698 35.255 27.3411 34.9164C27.3592 34.8318 27.3697 34.7443 27.3697 34.6577C27.3716 33.1293 27.3744 31.6019 27.3668 30.0745ZM33.1142 22.3336C27.0397 22.2033 20.9622 22.2033 14.8867 22.3336C12.7791 22.3783 11.0938 24.1016 11.0938 26.2102V35.6982C11.0938 37.8077 12.7791 39.5311 14.8867 39.5758C20.9622 39.7061 27.0397 39.7061 33.1142 39.5758C35.2228 39.5311 36.9081 37.8077 36.9081 35.6982V26.2102C36.9081 24.1017 35.2228 22.3783 33.1142 22.3336ZM16.6709 36.5628H14.919V26.6592H13.1053V25.0024H18.4884V26.6554H16.6709V36.5628ZM22.9405 32.4522V36.5637H21.3893V35.624C21.3331 35.684 21.3018 35.7163 21.2723 35.7496C20.9384 36.1262 20.5599 36.4401 20.0768 36.6065C19.8409 36.6873 19.5984 36.7149 19.3501 36.6721C19.0115 36.616 18.7842 36.421 18.6473 36.1129C18.5198 35.8285 18.4875 35.5242 18.4865 35.2179C18.4827 34.0861 18.4846 28.0962 18.4846 28.0382H20.0321C20.0349 28.0905 20.0406 32.3903 20.0416 34.4875C20.0416 34.6016 20.0425 34.7186 20.0653 34.8299C20.1224 35.1114 20.3383 35.2322 20.6094 35.1333C20.9213 35.0191 21.1591 34.8042 21.3588 34.5465C21.3883 34.5094 21.3883 34.4428 21.3883 34.3895V28.0287L22.9405 28.0249C22.9405 28.025 22.9405 31.0274 22.9405 32.4522ZM28.842 35.742C28.6346 36.3659 28.1781 36.6835 27.5219 36.6769C26.9883 36.6721 26.5556 36.46 26.1989 36.0729C26.1589 36.0301 26.0486 35.9132 26.0486 35.9132V36.5618H24.4945V25.0014H26.0486C26.0486 26.2321 26.0486 28.8067 26.0486 28.8067C26.0486 28.8067 26.1361 28.6317 26.216 28.5413C26.4566 28.2721 26.7496 28.0639 27.111 27.9726C27.7073 27.8232 28.395 28.0077 28.7221 28.7049C28.9152 29.1167 28.9694 29.5561 28.9694 30.0031C28.9723 31.619 28.9723 33.2349 28.9704 34.8508C28.9694 35.1532 28.938 35.452 28.842 35.742ZM34.5818 35.4168C34.3126 36.2052 33.7562 36.6427 32.9402 36.7626C32.4342 36.8368 31.933 36.8263 31.4584 36.6114C30.8088 36.3184 30.4407 35.7887 30.2829 35.1143C30.2096 34.8005 30.1735 34.4714 30.1697 34.149C30.1573 32.8831 30.163 31.6163 30.1659 30.3504C30.1668 29.6884 30.3247 29.0778 30.7784 28.5709C31.2958 27.9917 31.9577 27.7758 32.7138 27.8243C32.9411 27.8385 33.1732 27.8756 33.3891 27.947C34.1243 28.1885 34.5171 28.7392 34.6712 29.4697C34.7301 29.7512 34.752 30.0432 34.7568 30.3313C34.7691 31.0066 34.752 32.4951 34.752 32.4951H31.7761V34.6283C31.7761 35.0116 32.0861 35.3217 32.4694 35.3217C32.8517 35.3217 33.1618 35.0116 33.1618 34.6283V33.5317H34.7606C34.7606 33.5316 34.7843 34.8262 34.5818 35.4168ZM33.1618 29.9747C33.1618 29.5923 32.8517 29.2813 32.4694 29.2813C32.0861 29.2813 31.7761 29.5923 31.7761 29.9747V31.1721H33.1618V29.9747ZM27.2584 29.5933C27.1785 29.3945 27.0073 29.2956 26.7924 29.2747C26.5403 29.25 26.3387 29.3517 26.1561 29.5134C26.0829 29.5771 26.0496 29.6722 26.0496 29.6722L26.0534 34.8052V34.9317C26.0534 34.9317 26.0971 34.9907 26.1038 34.9983C26.2522 35.159 26.4253 35.2865 26.6469 35.3321C27.0121 35.4073 27.2698 35.2551 27.3411 34.9165C27.3592 34.8319 27.3697 34.7444 27.3697 34.6578C27.3716 33.1294 27.3744 31.602 27.3668 30.0745C27.3659 29.9128 27.3183 29.7444 27.2584 29.5933Z" fill="#fff"/><path d="M31.2311 11.3628L31.2307 19.9458H29.6403L29.6422 19.0237C29.4663 19.1969 29.3162 19.3587 29.1513 19.504C28.8589 19.7615 28.5278 19.9536 28.1404 20.0294C27.5457 20.1457 27.0391 19.9577 26.8495 19.3417C26.7863 19.1366 26.7482 18.9155 26.7466 18.7013V11.3628H28.325V17.9083C28.325 17.995 28.3319 18.0827 28.3472 18.1677C28.3951 18.4374 28.5944 18.5644 28.8542 18.4743C29.1708 18.3648 29.4124 18.1456 29.6173 17.8872C29.6464 17.8503 29.6412 17.7815 29.6412 17.7274V11.3628H31.2311Z" fill="#fff"/><path d="M18.0771 12.854C17.7319 11.3988 17.0086 8.32666 17.0086 8.32666H15.1987C15.1987 8.32666 16.5892 12.9382 17.211 14.9948C17.2334 15.0692 17.2437 15.1499 17.2437 15.2278L17.243 19.9437H18.9119L18.9112 15.2278C18.9112 15.1499 18.9215 15.0692 18.9438 14.9948C19.5656 12.9382 20.9561 8.32666 20.9561 8.32666H19.1463C19.1463 8.32666 18.4229 11.3988 18.0778 12.854H18.0771Z" fill="#fff"/><path d="M23.1337 11.1475C21.876 11.1475 20.8564 12.167 20.8564 13.4247V17.8814C20.8564 19.1391 21.876 20.1587 23.1337 20.1587C24.3914 20.1587 25.411 19.1391 25.411 17.8814V13.4247C25.4111 12.167 24.3914 11.1475 23.1337 11.1475ZM23.7909 17.9714C23.7909 18.3338 23.4961 18.6285 23.1338 18.6285C22.7716 18.6285 22.4767 18.3338 22.4767 17.9714V13.3347C22.4767 12.9723 22.7716 12.6776 23.1338 12.6776C23.4961 12.6776 23.7909 12.9724 23.7909 13.3347V17.9714Z" fill="#fff"/></svg>